<?xml version="1.0" encoding="utf-8"?>
<!-- Generator: Adobe Illustrator 16.0.0, SVG Export Plug-In . SVG Version: 6.00 Build 0)  -->
<!DOCTYPE svg PUBLIC "-//W3C//DTD SVG 1.1//EN" "http://www.w3.org/Graphics/SVG/1.1/DTD/svg11.dtd">
<svg version="1.1" id="Layer_1" xmlns="http://www.w3.org/2000/svg" xmlns:xlink="http://www.w3.org/1999/xlink" x="0px" y="0px"
	 width="512px" height="512px" viewBox="0 0 512 512" enable-background="new 0 0 512 512" xml:space="preserve">
<path id="dribbble-icon" fill="#FFFFFF" d="M256,50C142.229,50,50,142.229,50,256c0,113.767,92.229,206,206,206
	c113.771,0,206-92.233,206-206C462,142.229,369.771,50,256,50z M425.688,246.404c-44.199-7.251-84.854-7.639-121.924-1.254
	c-4.188-9.673-8.531-19.304-13.162-28.842c39.64-17.163,71.502-40.484,95.237-70.065
	C409.005,173.606,423.55,208.354,425.688,246.404z M359.73,121.402c-20.674,26.665-49.223,47.766-85.586,63.165
	c-17.444-31.947-37.384-63.099-59.889-93.344c13.381-3.398,27.319-5.397,41.743-5.397C295.059,85.826,330.979,99.191,359.73,121.402
	z M179.218,104.338c22.859,29.91,43.108,60.729,60.714,92.374c-41.712,12.28-91.516,18.591-149.081,18.985
	C102.737,167.021,135.52,126.55,179.218,104.338z M85.826,256c0-1.482,0.184-2.921,0.223-4.391
	c66.063-0.092,123.056-7.696,170.809-22.698c4.002,8.144,7.834,16.335,11.492,24.578c-58.012,18.133-105.825,55.305-143.11,111.247
	C100.656,335.229,85.826,297.318,85.826,256z M151.562,390.067c33.801-53.011,76.952-87.514,130.43-103.464
	c15.918,41.541,27.621,84.282,35.062,128.061c-18.983,7.329-39.519,11.51-61.053,11.51
	C216.622,426.174,180.425,412.608,151.562,390.067z M350.454,397.45c-7.521-40.384-18.543-79.878-32.956-118.399
	c32.191-4.543,67.641-3.361,106.411,3.372C416.403,330.247,389.093,371.56,350.454,397.45z"/>
</svg>
