<?xml version="1.0" encoding="utf-8"?>
<!-- Generator: Adobe Illustrator 16.0.0, SVG Export Plug-In . SVG Version: 6.00 Build 0)  -->
<!DOCTYPE svg PUBLIC "-//W3C//DTD SVG 1.1//EN" "http://www.w3.org/Graphics/SVG/1.1/DTD/svg11.dtd">
<svg version="1.1" id="Layer_1" xmlns="http://www.w3.org/2000/svg" xmlns:xlink="http://www.w3.org/1999/xlink" x="0px" y="0px"
	 width="512px" height="512px" viewBox="0 0 512 512" enable-background="new 0 0 512 512" xml:space="preserve">
<path id="flickr-icon" fill="#FFFFFF" d="M353.148,147.149c-42.435,0-79.192,24.282-97.148,59.708
	c-17.956-35.425-54.714-59.708-97.148-59.708C98.735,147.149,50,195.882,50,256.001c0,60.115,48.735,108.851,108.853,108.851
	c42.434,0,79.192-24.282,97.148-59.707c17.956,35.425,54.714,59.707,97.149,59.707c60.115,0,108.851-48.734,108.851-108.851
	C462,195.882,413.266,147.149,353.148,147.149z M353.148,335.824c-44.015,0-79.824-35.809-79.824-79.823
	c0-44.014,35.811-79.824,79.824-79.824s79.822,35.81,79.822,79.824C432.972,300.016,397.162,335.824,353.148,335.824z"/>
</svg>
