<?xml version="1.0" encoding="utf-8"?>
<!-- Generator: Adobe Illustrator 16.0.0, SVG Export Plug-In . SVG Version: 6.00 Build 0)  -->
<!DOCTYPE svg PUBLIC "-//W3C//DTD SVG 1.1//EN" "http://www.w3.org/Graphics/SVG/1.1/DTD/svg11.dtd">
<svg version="1.1" id="Layer_1" xmlns="http://www.w3.org/2000/svg" xmlns:xlink="http://www.w3.org/1999/xlink" x="0px" y="0px"
	 width="512px" height="512px" viewBox="0 0 512 512" enable-background="new 0 0 512 512" xml:space="preserve">
<path id="pinterest-icon" fill="#FFFFFF" d="M265.653,50C153.22,50,96.526,130.612,96.526,197.833
	c0,40.702,15.411,76.914,48.462,90.41c5.418,2.215,10.274,0.077,11.846-5.925c1.093-4.152,3.681-14.631,4.835-18.99
	c1.584-5.936,0.97-8.018-3.403-13.191c-9.53-11.242-15.621-25.795-15.621-46.408c0-59.806,44.746-113.343,116.515-113.343
	c63.549,0,98.465,38.831,98.465,90.69c0,68.234-30.198,125.824-75.025,125.824c-24.76,0-43.291-20.476-37.352-45.586
	c7.115-29.98,20.895-62.333,20.895-83.975c0-19.37-10.398-35.527-31.918-35.527c-25.308,0-45.639,26.182-45.639,61.254
	c0,22.337,7.549,37.446,7.549,37.446s-25.898,109.737-30.439,128.954c-9.043,38.273-1.361,85.193-0.708,89.932
	c0.38,2.809,3.989,3.476,5.621,1.354c2.335-3.047,32.479-40.26,42.726-77.441c2.9-10.527,16.648-65.049,16.648-65.049
	c8.221,15.684,32.25,29.497,57.805,29.497c76.075,0,127.688-69.354,127.688-162.187C415.474,115.374,356.018,50,265.653,50z"/>
</svg>
